<svg width="17" height="16" viewBox="0 0 17 16" fill="none" xmlns="http://www.w3.org/2000/svg">
<path d="M10.7031 8.07184L15.7656 3.05621C16.0469 2.77496 16.0469 2.25934 15.7656 1.97809L14.5938 0.806213C14.3125 0.524963 13.7969 0.524963 13.5156 0.806213L8.5 5.86871L3.4375 0.806213C3.15625 0.524963 2.64062 0.524963 2.35938 0.806213L1.1875 1.97809C0.90625 2.25934 0.90625 2.77496 1.1875 3.05621L6.25 8.07184L1.1875 13.1343C0.90625 13.4156 0.90625 13.9312 1.1875 14.2125L2.35938 15.3843C2.64062 15.6656 3.15625 15.6656 3.4375 15.3843L8.5 10.3218L13.5156 15.3843C13.7969 15.6656 14.3125 15.6656 14.5938 15.3843L15.7656 14.2125C16.0469 13.9312 16.0469 13.4156 15.7656 13.1343L10.7031 8.07184Z" fill="#F5F6F7"/>
</svg>
