<svg width="76" height="58" viewBox="0 0 76 58" fill="none" xmlns="http://www.w3.org/2000/svg">
<path opacity="0.2" d="M68.875 0.228516H7.125C3.11719 0.228516 0 3.49414 0 7.35352V50.1035C0 54.1113 3.11719 57.2285 7.125 57.2285H68.875C72.7344 57.2285 76 54.1113 76 50.1035V7.35352C76 3.49414 72.7344 0.228516 68.875 0.228516ZM67.9844 50.1035H8.01562C7.42187 50.1035 7.125 49.8066 7.125 49.2129V8.24414C7.125 7.79883 7.42187 7.35352 8.01562 7.35352H67.9844C68.4297 7.35352 68.875 7.79883 68.875 8.24414V49.2129C68.875 49.8066 68.4297 50.1035 67.9844 50.1035ZM19 13.291C15.5859 13.291 13.0625 15.9629 13.0625 19.2285C13.0625 22.6426 15.5859 25.166 19 25.166C22.2656 25.166 24.9375 22.6426 24.9375 19.2285C24.9375 15.9629 22.2656 13.291 19 13.291ZM14.25 42.9785H61.75V31.1035L48.6875 18.1895C47.9453 17.4473 46.9062 17.4473 46.1641 18.1895L28.5 35.8535L22.5625 30.0645C21.8203 29.3223 20.7812 29.3223 20.0391 30.0645L14.25 35.8535V42.9785Z" fill="#343840"/>
</svg>
