<svg width="235" height="21" viewBox="0 0 235 21" fill="none" xmlns="http://www.w3.org/2000/svg">
<g clip-path="url(#clip0_1656_16134)">
<path d="M43.7867 15.8581C42.785 15.8581 41.8744 15.6308 41.0548 15.1761C40.2482 14.7215 39.6108 14.0785 39.1425 13.2471C38.6871 12.4028 38.4595 11.4286 38.4595 10.3244C38.4595 9.23329 38.6936 8.27205 39.162 7.4407C39.6433 6.59637 40.2938 5.95337 41.1133 5.51172C41.9329 5.05708 42.8501 4.82976 43.8648 4.82976C44.8795 4.82976 45.7967 5.05708 46.6162 5.51172C47.4358 5.95337 48.0798 6.58987 48.5481 7.42122C49.0294 8.25256 49.2701 9.2203 49.2701 10.3244C49.2701 11.4286 49.0229 12.4028 48.5286 13.2471C48.0472 14.0785 47.3903 14.7215 46.5577 15.1761C45.7251 15.6308 44.8015 15.8581 43.7867 15.8581ZM43.7867 14.2993C44.4242 14.2993 45.0226 14.1499 45.582 13.8512C46.1414 13.5524 46.5902 13.1042 46.9285 12.5067C47.2797 11.9092 47.4553 11.1818 47.4553 10.3244C47.4553 9.46711 47.2862 8.73968 46.948 8.14215C46.6097 7.54462 46.1674 7.10297 45.621 6.81719C45.0746 6.51843 44.4827 6.36905 43.8453 6.36905C43.1948 6.36905 42.5964 6.51843 42.05 6.81719C41.5166 7.10297 41.0873 7.54462 40.7621 8.14215C40.4369 8.73968 40.2743 9.46711 40.2743 10.3244C40.2743 11.1947 40.4304 11.9287 40.7426 12.5262C41.0678 13.1237 41.4971 13.5719 42.0305 13.8706C42.5639 14.1564 43.1493 14.2993 43.7867 14.2993ZM52.6001 6.97307C52.9514 6.36255 53.4718 5.85595 54.1613 5.45327C54.8637 5.03759 55.6768 4.82976 56.6005 4.82976C57.5501 4.82976 58.4088 5.05708 59.1763 5.51172C59.9569 5.96636 60.5683 6.60936 61.0106 7.4407C61.4529 8.25906 61.6741 9.21381 61.6741 10.3049C61.6741 11.3831 61.4529 12.3443 61.0106 13.1887C60.5683 14.033 59.9569 14.689 59.1763 15.1566C58.4088 15.6243 57.5501 15.8581 56.6005 15.8581C55.6898 15.8581 54.8833 15.6567 54.1808 15.254C53.4913 14.8384 52.9644 14.3253 52.6001 13.7148V20.7487H50.8244V5.00512H52.6001V6.97307ZM59.8593 10.3049C59.8593 9.49958 59.6967 8.79813 59.3714 8.2006C59.0462 7.60307 58.6039 7.14843 58.0445 6.83668C57.4981 6.52492 56.8932 6.36905 56.2297 6.36905C55.5793 6.36905 54.9743 6.53142 54.4149 6.85616C53.8685 7.16792 53.4262 7.62905 53.088 8.23957C52.7628 8.8371 52.6001 9.53205 52.6001 10.3244C52.6001 11.1298 52.7628 11.8377 53.088 12.4483C53.4262 13.0458 53.8685 13.5069 54.4149 13.8317C54.9743 14.1434 55.5793 14.2993 56.2297 14.2993C56.8932 14.2993 57.4981 14.1434 58.0445 13.8317C58.6039 13.5069 59.0462 13.0458 59.3714 12.4483C59.6967 11.8377 59.8593 11.1233 59.8593 10.3049ZM68.4411 4.81027C69.742 4.81027 70.7957 5.20646 71.6023 5.99884C72.4089 6.77822 72.8122 7.90833 72.8122 9.38917V15.6827H71.0559V9.64247C71.0559 8.57731 70.7892 7.76544 70.2558 7.20688C69.7225 6.63533 68.994 6.34956 68.0703 6.34956C67.1336 6.34956 66.3856 6.64183 65.8262 7.22637C65.2798 7.81091 65.0066 8.66174 65.0066 9.77886V15.6827H63.2309V5.00512H65.0066V6.52492C65.3579 5.97935 65.8327 5.55718 66.4311 5.25842C67.0426 4.95965 67.7125 4.81027 68.4411 4.81027ZM86.4263 15.6827H83.6943L77.5081 6.34956V15.6827H74.7761V2.06293H77.5081L83.6943 11.4156V2.06293H86.4263V15.6827ZM96.7559 2.08242V4.28419H91.0771V7.77194H95.4288V9.93474H91.0771V15.6827H88.3451V2.08242H96.7559ZM107.181 2.08242V4.28419H103.552V15.6827H100.82V4.28419H97.1898V2.08242H107.181ZM107.692 10.2465C107.692 9.15535 107.907 8.18761 108.336 7.34328C108.777 6.49894 109.37 5.84945 110.111 5.39481C110.866 4.94017 111.705 4.71285 112.629 4.71285C113.435 4.71285 114.137 4.87522 114.736 5.19997C115.347 5.52471 115.835 5.93389 116.2 6.4275V4.88821H118.951V15.6827H116.2V14.1045C115.848 14.6111 115.361 15.0332 114.736 15.371C114.125 15.6957 113.416 15.8581 112.609 15.8581C111.698 15.8581 110.866 15.6243 110.111 15.1566C109.37 14.689 108.777 14.033 108.336 13.1887C107.907 12.3314 107.692 11.3506 107.692 10.2465ZM116.2 10.2855C116.2 9.62298 116.07 9.05793 115.81 8.5903C115.549 8.10967 115.198 7.74596 114.755 7.49915C114.314 7.23936 113.838 7.10946 113.331 7.10946C112.824 7.10946 112.355 7.23286 111.926 7.47967C111.497 7.72648 111.145 8.09019 110.872 8.57081C110.612 9.03844 110.482 9.597 110.482 10.2465C110.482 10.896 110.612 11.4675 110.872 11.9611C111.145 12.4418 111.497 12.812 111.926 13.0718C112.369 13.3316 112.837 13.4615 113.331 13.4615C113.838 13.4615 114.314 13.3381 114.755 13.0913C115.198 12.8315 115.549 12.4677 115.81 12.0001C116.07 11.5195 116.2 10.9479 116.2 10.2855ZM131.045 4.88821V15.6827H128.293V14.3188C127.941 14.7864 127.48 15.1566 126.907 15.4294C126.348 15.6892 125.736 15.8191 125.073 15.8191C124.228 15.8191 123.479 15.6437 122.829 15.293C122.179 14.9293 121.665 14.4032 121.288 13.7148C120.923 13.0133 120.741 12.182 120.741 11.2207V4.88821H123.473V10.831C123.473 11.6884 123.687 12.3508 124.117 12.8185C124.546 13.2731 125.132 13.5004 125.873 13.5004C126.628 13.5004 127.22 13.2731 127.649 12.8185C128.078 12.3508 128.293 11.6884 128.293 10.831V4.88821H131.045ZM136.14 7.12895V12.3508C136.14 12.7145 136.225 12.9808 136.393 13.1497C136.576 13.3056 136.875 13.3835 137.291 13.3835H138.56V15.6827H136.842C134.54 15.6827 133.389 14.5656 133.389 12.3314V7.12895H132.1V4.88821H133.389V2.21881H136.14V4.88821H138.56V7.12895H136.14ZM145.832 4.73233C146.652 4.73233 147.381 4.91419 148.018 5.2779C148.655 5.62863 149.15 6.15471 149.501 6.85616C149.865 7.54462 150.048 8.37597 150.048 9.3502V15.6827H147.316V9.72041C147.316 8.86308 147.101 8.2071 146.672 7.75246C146.242 7.28482 145.657 7.05101 144.915 7.05101C144.161 7.05101 143.562 7.28482 143.12 7.75246C142.691 8.2071 142.476 8.86308 142.476 9.72041V15.6827H139.744V1.26406H142.476V6.23265C142.827 5.76502 143.295 5.40131 143.881 5.14151C144.466 4.86873 145.117 4.73233 145.832 4.73233ZM161.915 10.0516C161.915 10.4413 161.888 10.7921 161.836 11.1038H153.933C153.998 11.8832 154.272 12.4937 154.753 12.9354C155.234 13.377 155.826 13.5979 156.528 13.5979C157.543 13.5979 158.266 13.1627 158.695 12.2924H161.641C161.329 13.3316 160.73 14.1889 159.846 14.8644C158.961 15.5268 157.875 15.8581 156.587 15.8581C155.546 15.8581 154.61 15.6308 153.777 15.1761C152.957 14.7085 152.314 14.0525 151.845 13.2082C151.39 12.3638 151.162 11.3896 151.162 10.2855C151.162 9.16834 151.39 8.18761 151.845 7.34328C152.3 6.49894 152.938 5.84945 153.758 5.39481C154.577 4.94017 155.52 4.71285 156.587 4.71285C157.615 4.71285 158.532 4.93367 159.339 5.37533C160.158 5.81698 160.789 6.44698 161.232 7.26534C161.687 8.0707 161.915 8.99947 161.915 10.0516ZM159.085 9.27226C159.072 8.57081 158.818 8.01225 158.323 7.59658C157.829 7.16792 157.225 6.95358 156.509 6.95358C155.833 6.95358 155.26 7.16142 154.792 7.57709C154.337 7.97978 154.057 8.54483 153.953 9.27226H159.085ZM169.119 4.73233C170.406 4.73233 171.447 5.14151 172.241 5.95987C173.034 6.76523 173.431 7.89534 173.431 9.3502V15.6827H170.699V9.72041C170.699 8.86308 170.485 8.2071 170.056 7.75246C169.626 7.28482 169.04 7.05101 168.299 7.05101C167.544 7.05101 166.946 7.28482 166.503 7.75246C166.074 8.2071 165.86 8.86308 165.86 9.72041V15.6827H163.128V4.88821H165.86V6.23265C166.224 5.76502 166.686 5.40131 167.245 5.14151C167.818 4.86873 168.442 4.73233 169.119 4.73233ZM178.429 7.12895V12.3508C178.429 12.7145 178.514 12.9808 178.683 13.1497C178.865 13.3056 179.164 13.3835 179.581 13.3835H180.849V15.6827H179.132C176.829 15.6827 175.678 14.5656 175.678 12.3314V7.12895H174.39V4.88821H175.678V2.21881H178.429V4.88821H180.849V7.12895H178.429ZM183.419 3.60222C182.938 3.60222 182.534 3.45284 182.209 3.15408C181.897 2.84232 181.741 2.45912 181.741 2.00448C181.741 1.54984 181.897 1.17314 182.209 0.874371C182.534 0.562616 182.938 0.406738 183.419 0.406738C183.9 0.406738 184.297 0.562616 184.609 0.874371C184.934 1.17314 185.097 1.54984 185.097 2.00448C185.097 2.45912 184.934 2.84232 184.609 3.15408C184.297 3.45284 183.9 3.60222 183.419 3.60222ZM184.765 4.88821V15.6827H182.034V4.88821H184.765ZM185.982 10.2855C185.982 9.16834 186.209 8.19411 186.664 7.36276C187.12 6.51843 187.75 5.86894 188.557 5.4143C189.364 4.94666 190.287 4.71285 191.328 4.71285C192.669 4.71285 193.774 5.05058 194.645 5.72605C195.531 6.38853 196.122 7.32379 196.421 8.53184H193.475C193.319 8.06421 193.052 7.7005 192.675 7.4407C192.311 7.16792 191.855 7.03152 191.309 7.03152C190.528 7.03152 189.91 7.3173 189.455 7.88885C189 8.44741 188.772 9.24628 188.772 10.2855C188.772 11.3117 189 12.1105 189.455 12.6821C189.91 13.2406 190.528 13.5199 191.309 13.5199C192.415 13.5199 193.137 13.0263 193.475 12.0391H196.421C196.122 13.2082 195.531 14.1369 194.645 14.8254C193.761 15.5138 192.655 15.8581 191.328 15.8581C190.287 15.8581 189.364 15.6308 188.557 15.1761C187.75 14.7085 187.12 14.059 186.664 13.2276C186.209 12.3833 185.982 11.4026 185.982 10.2855ZM196.939 10.2465C196.939 9.15535 197.154 8.18761 197.584 7.34328C198.026 6.49894 198.618 5.84945 199.36 5.39481C200.114 4.94017 200.953 4.71285 201.877 4.71285C202.683 4.71285 203.386 4.87522 203.984 5.19997C204.596 5.52471 205.084 5.93389 205.448 6.4275V4.88821H208.199V15.6827H205.448V14.1045C205.096 14.6111 204.608 15.0332 203.984 15.371C203.373 15.6957 202.663 15.8581 201.857 15.8581C200.947 15.8581 200.114 15.6243 199.36 15.1566C198.618 14.689 198.026 14.033 197.584 13.1887C197.154 12.3314 196.939 11.3506 196.939 10.2465ZM205.448 10.2855C205.448 9.62298 205.318 9.05793 205.057 8.5903C204.797 8.10967 204.446 7.74596 204.004 7.49915C203.561 7.23936 203.086 7.10946 202.579 7.10946C202.072 7.10946 201.604 7.23286 201.175 7.47967C200.745 7.72648 200.394 8.09019 200.12 8.57081C199.86 9.03844 199.73 9.597 199.73 10.2465C199.73 10.896 199.86 11.4675 200.12 11.9611C200.394 12.4418 200.745 12.812 201.175 13.0718C201.616 13.3316 202.085 13.4615 202.579 13.4615C203.086 13.4615 203.561 13.3381 204.004 13.0913C204.446 12.8315 204.797 12.4677 205.057 12.0001C205.318 11.5195 205.448 10.9479 205.448 10.2855ZM213.268 7.12895V12.3508C213.268 12.7145 213.352 12.9808 213.521 13.1497C213.703 13.3056 214.003 13.3835 214.419 13.3835H215.687V15.6827H213.97C211.668 15.6827 210.516 14.5656 210.516 12.3314V7.12895H209.228V4.88821H210.516V2.21881H213.268V4.88821H215.687V7.12895H213.268ZM221.672 15.8581C220.631 15.8581 219.694 15.6308 218.862 15.1761C218.029 14.7085 217.373 14.0525 216.891 13.2082C216.423 12.3638 216.189 11.3896 216.189 10.2855C216.189 9.18133 216.429 8.2071 216.911 7.36276C217.405 6.51843 218.075 5.86894 218.921 5.4143C219.767 4.94666 220.71 4.71285 221.75 4.71285C222.791 4.71285 223.734 4.94666 224.58 5.4143C225.426 5.86894 226.089 6.51843 226.57 7.36276C227.064 8.2071 227.312 9.18133 227.312 10.2855C227.312 11.3896 227.058 12.3638 226.55 13.2082C226.056 14.0525 225.38 14.7085 224.521 15.1761C223.676 15.6308 222.726 15.8581 221.672 15.8581ZM221.672 13.4809C222.166 13.4809 222.629 13.364 223.058 13.1302C223.5 12.8834 223.851 12.5197 224.111 12.0391C224.371 11.5585 224.501 10.9739 224.501 10.2855C224.501 9.25927 224.229 8.47339 223.682 7.92782C223.149 7.36926 222.491 7.08998 221.711 7.08998C220.93 7.08998 220.273 7.36926 219.74 7.92782C219.22 8.47339 218.96 9.25927 218.96 10.2855C218.96 11.3117 219.214 12.104 219.721 12.6626C220.241 13.2082 220.891 13.4809 221.672 13.4809ZM231.267 6.56389C231.618 5.99234 232.074 5.54419 232.633 5.21945C233.205 4.89471 233.855 4.73233 234.584 4.73233V7.59658H233.862C233.003 7.59658 232.353 7.79792 231.911 8.2006C231.481 8.60329 231.267 9.30473 231.267 10.3049V15.6827H228.535V4.88821H231.267V6.56389Z" fill="#131926"/>
<path fill-rule="evenodd" clip-rule="evenodd" d="M17.7981 9.50954C17.7981 5.13514 14.2426 1.58492 9.86165 1.58492C5.48071 1.58492 1.92518 5.13514 1.92518 9.50954V14.7714V15.8492H0.337891V9.50954C0.337891 4.25551 4.59977 0 9.86165 0C15.1235 0 19.3854 4.25551 19.3854 9.50954V15.8492H17.7981V14.7714V14.0266V9.50954ZM14.6235 9.50954C14.6235 12.1326 12.4886 14.2643 9.86165 14.2643C8.73469 14.2643 7.70292 13.876 6.89341 13.2262C6.81404 13.1628 6.68706 13.2183 6.68706 13.3212V14.9141C6.68706 14.9696 6.7188 15.025 6.76642 15.0488C7.67911 15.564 8.73469 15.8492 9.86165 15.8492C13.3695 15.8492 16.2108 13.0122 16.2108 9.50954C16.2108 6.00685 13.3695 3.16985 9.86165 3.16985C6.35372 3.16985 3.51248 6.00685 3.51248 9.50954V15.8492H5.09976V9.50954C5.09976 6.88648 7.23467 4.75476 9.86165 4.75476C12.4886 4.75476 14.6235 6.88648 14.6235 9.50954ZM9.86165 11.0945C10.7346 11.0945 11.4489 10.3812 11.4489 9.50954C11.4489 8.6378 10.7346 7.92463 9.86165 7.92463C8.98861 7.92463 8.27437 8.6378 8.27437 9.50954C8.27437 10.3812 8.98861 11.0945 9.86165 11.0945ZM9.86165 12.6794C11.6156 12.6794 13.0362 11.2609 13.0362 9.50954C13.0362 7.75819 11.6156 6.33968 9.86165 6.33968C8.10768 6.33968 6.68706 7.75819 6.68706 9.50954C6.68706 11.2609 8.10768 12.6794 9.86165 12.6794Z" fill="#131926"/>
<path fill-rule="evenodd" clip-rule="evenodd" d="M28.8948 15.8502V0L29.7594 6.9244e-09V15.8502H28.8948Z" fill="#131926"/>
</g>
<defs>
<clipPath id="clip0_1656_16134">
<rect width="234.324" height="20.752" fill="white" transform="translate(0.337891)"/>
</clipPath>
</defs>
</svg>
