<svg width="376" height="446" viewBox="0 0 376 446" fill="none" xmlns="http://www.w3.org/2000/svg">
<g filter="url(#filter0_d_1715_16501)">
<path fill-rule="evenodd" clip-rule="evenodd" d="M36.3101 21.2151C29.6826 21.2151 24.3101 26.5877 24.3101 33.2151V384.557C24.3101 385.244 25.1217 385.557 25.681 385.157C27.9727 383.52 30.7789 382.557 33.8101 382.557C41.542 382.557 47.8101 388.825 47.8101 396.557C47.8101 388.825 54.0781 382.557 61.8101 382.557C69.542 382.557 75.8101 388.825 75.8101 396.557C75.8101 388.825 82.0781 382.557 89.8101 382.557C97.542 382.557 103.81 388.825 103.81 396.557C103.81 388.825 110.078 382.557 117.81 382.557C125.542 382.557 131.81 388.825 131.81 396.557C131.81 388.825 138.078 382.557 145.81 382.557C153.542 382.557 159.81 388.825 159.81 396.557C159.81 388.825 166.078 382.557 173.81 382.557C181.542 382.557 187.81 388.825 187.81 396.557C187.81 388.825 194.078 382.557 201.81 382.557C209.542 382.557 215.81 388.825 215.81 396.557C215.81 388.825 222.078 382.557 229.81 382.557C237.542 382.557 243.81 388.825 243.81 396.557C243.81 388.825 250.078 382.557 257.81 382.557C265.542 382.557 271.81 388.825 271.81 396.557C271.81 388.825 278.078 382.557 285.81 382.557C293.542 382.557 299.81 388.825 299.81 396.557C299.81 388.825 306.078 382.557 313.81 382.557C321.542 382.557 327.81 388.825 327.81 396.557C327.81 388.825 334.078 382.557 341.81 382.557C344.841 382.557 347.647 383.52 349.939 385.157C350.498 385.557 351.31 385.244 351.31 384.557V33.2151C351.31 26.5877 345.937 21.2151 339.31 21.2151H36.3101Z" fill="#5296FD"/>
</g>
<defs>
<filter id="filter0_d_1715_16501" x="-10.6899" y="0.215088" width="397" height="445.342" filterUnits="userSpaceOnUse" color-interpolation-filters="sRGB">
<feFlood flood-opacity="0" result="BackgroundImageFix"/>
<feColorMatrix in="SourceAlpha" type="matrix" values="0 0 0 0 0 0 0 0 0 0 0 0 0 0 0 0 0 0 127 0" result="hardAlpha"/>
<feOffset dy="14"/>
<feGaussianBlur stdDeviation="17.5"/>
<feComposite in2="hardAlpha" operator="out"/>
<feColorMatrix type="matrix" values="0 0 0 0 0.7 0 0 0 0 0.819298 0 0 0 0 1 0 0 0 1 0"/>
<feBlend mode="normal" in2="BackgroundImageFix" result="effect1_dropShadow_1715_16501"/>
<feBlend mode="normal" in="SourceGraphic" in2="effect1_dropShadow_1715_16501" result="shape"/>
</filter>
</defs>
</svg>
