<svg width="181" height="163" viewBox="0 0 181 163" fill="none" xmlns="http://www.w3.org/2000/svg">
<path d="M8.88721 29.9753C8.88721 17.1803 19.263 6.81372 32.0488 6.81372H147.581C160.376 6.81372 170.743 17.1895 170.743 29.9753V156.132H8.88721V29.9753Z" fill="url(#paint0_linear_1781_16267)"/>
<path d="M177.329 25.7992V162.193H2.3103V25.7992C2.3103 11.9648 13.5232 0.751953 27.3576 0.751953H152.281C166.116 0.751953 177.329 11.9648 177.329 25.7992Z" fill="url(#paint1_linear_1781_16267)"/>
<path d="M172.591 29.865V162.193H168.912V29.865C168.912 18.4497 159.622 9.15935 148.206 9.15935H133.912V18.1738C133.912 21.6324 131.107 24.4379 127.648 24.4379H51.9911C48.5325 24.4379 45.7269 21.6324 45.7269 18.1738V9.15935H31.4326C20.0174 9.15935 10.727 18.4497 10.727 29.865V162.193H7.04761V29.865C7.04761 16.4261 17.9845 5.47998 31.4326 5.47998H148.206C161.655 5.47998 172.591 16.4261 172.591 29.865Z" fill="url(#paint2_linear_1781_16267)"/>
<path d="M133.912 5.44312H45.7266V5.47991H133.912V5.44312Z" fill="url(#paint3_linear_1781_16267)"/>
<path d="M79.8528 13.0594H92.3718C93.0617 13.0594 93.6228 13.6206 93.6228 14.3104C93.6228 15.0003 93.0617 15.5614 92.3718 15.5614H79.8528C79.1629 15.5614 78.6018 15.0003 78.6018 14.3104C78.6018 13.6206 79.1629 13.0594 79.8528 13.0594Z" fill="#EBEBEB"/>
<path d="M99.8963 16.8216C101.278 16.8216 102.398 15.7015 102.398 14.3197C102.398 12.9379 101.278 11.8177 99.8963 11.8177C98.5145 11.8177 97.3943 12.9379 97.3943 14.3197C97.3943 15.7015 98.5145 16.8216 99.8963 16.8216Z" fill="#EBEBEB"/>
<path opacity="0.8" d="M0.958008 54.9122C0.958008 54.2224 1.51911 53.6613 2.20899 53.6613H2.31018V68.5811H2.20899C1.51911 68.5811 0.958008 68.02 0.958008 67.3301V54.9122Z" fill="#D5E0F5"/>
<path opacity="0.8" d="M0.958008 72.5548C0.958008 71.8649 1.51911 71.3038 2.20899 71.3038H2.31018V86.2237H2.20899C1.51911 86.2237 0.958008 85.6626 0.958008 84.9727V72.5548Z" fill="#D5E0F5"/>
<path opacity="0.8" d="M180.042 57.6257C180.042 56.9359 179.481 56.3748 178.791 56.3748H177.328V99.7913H178.791C179.481 99.7913 180.042 99.2302 180.042 98.5403V57.6257Z" fill="#CBD8F3"/>
<path d="M126.866 49.7059H57.8135C53.917 49.7059 50.7583 52.8646 50.7583 56.7611V130.017C50.7583 133.914 53.917 137.072 57.8135 137.072H126.866C130.762 137.072 133.921 133.914 133.921 130.017V56.7611C133.921 52.8646 130.762 49.7059 126.866 49.7059Z" fill="white"/>
<path d="M66.1106 89.6454H88.5915V67.1645H66.1106V89.6454ZM70.7926 71.8465H83.9095V84.9634H70.7926V71.8465ZM96.0882 67.1645V89.6454H118.569V67.1645H96.0882ZM113.887 84.9634H100.77V71.8465H113.887V84.9634ZM66.1106 119.623H88.5915V97.1421H66.1106V119.623ZM70.7926 101.824H83.9095V114.941H70.7926V101.824ZM74.5363 105.568V111.188H80.1566V105.568H74.5363ZM74.5363 75.5902V81.2105H80.1566V75.5902H74.5363ZM110.134 81.2105V75.5902H104.514V81.2105H110.134ZM114.816 97.1329V100.877H107.319V97.1329H96.079V119.614H99.8228V108.373H103.567V112.117H118.551V97.1329H114.807H114.816ZM114.816 115.87V119.614H118.56V115.87H114.816ZM107.319 115.87V119.614H111.063V115.87H107.319Z" fill="url(#paint4_linear_1781_16267)"/>
<path d="M124.557 111.942V127.304H108.258" stroke="url(#paint5_linear_1781_16267)" stroke-width="2" stroke-linecap="round" stroke-linejoin="round"/>
<path d="M60.113 111.942V127.304H76.4126" stroke="url(#paint6_linear_1781_16267)" stroke-width="2" stroke-linecap="round" stroke-linejoin="round"/>
<path d="M124.557 74.8452V59.4838H108.258" stroke="url(#paint7_linear_1781_16267)" stroke-width="2" stroke-linecap="round" stroke-linejoin="round"/>
<path d="M60.113 74.8452V59.4838H76.4126" stroke="url(#paint8_linear_1781_16267)" stroke-width="2" stroke-linecap="round" stroke-linejoin="round"/>
<path d="M42.2316 72.1776C42.2316 72.1776 39.748 72.4996 38.5706 76.1881C37.3932 72.4996 34.9097 72.1776 34.9097 72.1776C38.5614 71.3958 38.5706 66.7598 38.5706 66.7598C38.5706 66.7598 38.5798 71.3958 42.2316 72.1776Z" fill="white"/>
<path d="M42.2314 47.4707C42.2314 47.4707 38.9476 47.8939 37.3931 52.769C35.8385 47.8939 32.5547 47.4707 32.5547 47.4707C37.3839 46.4405 37.3931 40.3052 37.3931 40.3052C37.3931 40.3052 37.4022 46.4313 42.2314 47.4707Z" fill="white"/>
<path d="M58.8989 40.8755C58.8989 40.8755 56.9213 41.133 55.983 44.0673C55.0448 41.133 53.0671 40.8755 53.0671 40.8755C55.9738 40.25 55.983 36.5614 55.983 36.5614C55.983 36.5614 55.983 40.25 58.8989 40.8755Z" fill="white"/>
<defs>
<linearGradient id="paint0_linear_1781_16267" x1="84.0474" y1="205.987" x2="103.594" y2="-177.173" gradientUnits="userSpaceOnUse">
<stop offset="0.07" stop-color="#1B55C8"/>
<stop offset="0.19" stop-color="#4272D1"/>
<stop offset="0.41" stop-color="#85A4E1"/>
<stop offset="0.61" stop-color="#B9CBEE"/>
<stop offset="0.78" stop-color="#DFE7F7"/>
<stop offset="0.91" stop-color="#F6F8FC"/>
<stop offset="1" stop-color="white"/>
</linearGradient>
<linearGradient id="paint1_linear_1781_16267" x1="89.824" y1="-0.287468" x2="89.824" y2="220.336" gradientUnits="userSpaceOnUse">
<stop offset="0.03" stop-color="#1B55C8"/>
<stop offset="0.790805" stop-color="white"/>
</linearGradient>
<linearGradient id="paint2_linear_1781_16267" x1="89.0055" y1="-13.8643" x2="90.4128" y2="175.421" gradientUnits="userSpaceOnUse">
<stop offset="0.16" stop-color="#BDD3FF"/>
<stop offset="0.27" stop-color="#BDD3FF" stop-opacity="0.98"/>
<stop offset="0.37" stop-color="#C0D5FF" stop-opacity="0.94"/>
<stop offset="0.46" stop-color="#C6D9FF" stop-opacity="0.86"/>
<stop offset="0.56" stop-color="#CDDDFF" stop-opacity="0.76"/>
<stop offset="0.65" stop-color="#D6E3FF" stop-opacity="0.62"/>
<stop offset="0.75" stop-color="#E1EBFF" stop-opacity="0.45"/>
<stop offset="0.84" stop-color="#EEF4FF" stop-opacity="0.25"/>
<stop offset="0.93" stop-color="#FDFDFF" stop-opacity="0.02"/>
<stop offset="0.94" stop-color="white" stop-opacity="0"/>
</linearGradient>
<linearGradient id="paint3_linear_1781_16267" x1="30.402" y1="34.7768" x2="153.468" y2="-25.9419" gradientUnits="userSpaceOnUse">
<stop offset="0.05" stop-color="#1B55C8"/>
<stop offset="0.19" stop-color="#9CB6EA"/>
<stop offset="0.36" stop-color="#9FB8EA"/>
<stop offset="0.52" stop-color="#ABC1ED"/>
<stop offset="0.68" stop-color="#BECFF1"/>
<stop offset="0.83" stop-color="#DAE3F7"/>
<stop offset="0.99" stop-color="#FCFDFE"/>
<stop offset="1" stop-color="white"/>
</linearGradient>
<linearGradient id="paint4_linear_1781_16267" x1="142.513" y1="149.509" x2="43.3997" y2="38.6586" gradientUnits="userSpaceOnUse">
<stop stop-color="#1B55C8"/>
<stop offset="1" stop-color="#B6CAEF"/>
</linearGradient>
<linearGradient id="paint5_linear_1781_16267" x1="112.103" y1="132.041" x2="128.366" y2="114.15" gradientUnits="userSpaceOnUse">
<stop stop-color="#1B55C8"/>
<stop offset="1" stop-color="#B6CAEF"/>
</linearGradient>
<linearGradient id="paint6_linear_1781_16267" x1="72.5677" y1="132.041" x2="56.3141" y2="114.15" gradientUnits="userSpaceOnUse">
<stop stop-color="#1B55C8"/>
<stop offset="1" stop-color="#B6CAEF"/>
</linearGradient>
<linearGradient id="paint7_linear_1781_16267" x1="112.103" y1="54.7466" x2="128.366" y2="72.6284" gradientUnits="userSpaceOnUse">
<stop stop-color="#1B55C8"/>
<stop offset="1" stop-color="#B6CAEF"/>
</linearGradient>
<linearGradient id="paint8_linear_1781_16267" x1="72.5677" y1="54.7466" x2="56.3141" y2="72.6284" gradientUnits="userSpaceOnUse">
<stop stop-color="#1B55C8"/>
<stop offset="1" stop-color="#B6CAEF"/>
</linearGradient>
</defs>
</svg>
